# xmcd
#
# Track frame offsets:
#	150
#	16726
#	34386
#	55884
#	80936
#	105302
#	125740
#	145016
#	165696
#	183958
#	200881
#	218809
#	242285
#	259011
#	278234
#	295695
#	325696
#
# Disc length: 4357 seconds
#
# Revision: 1
# Processed by: cddbd v1.5.2PL0 Copyright (c) Steve Scherf et al.
# Submitted via: audiograbber 1.83.01
#
DISCID=f5110311
DTITLE=Pop Hits - 5343-03
DYEAR=1900
DGENRE=
TTITLE0=Simple Plan - Welcome To My Life
TTITLE1=Seal - Waiting For You
TTITLE2=Dave Mathews - Save Me
TTITLE3=Prince - Call My Name
TTITLE4=Hoobastank - Disappear
TTITLE5=Nelly and Christina Aguilera - Tilt Ya Head Back
TTITLE6=Maroon 5 - She Will Be Loved
TTITLE7=Ruban Studdard - Sorry 2004
TTITLE8=Three Days Grace - I Hate Everything About You
TTITLE9=Ryan Duarte - You
TTITLE10=Jet - Look What You've Done
TTITLE11=R. Kelly - Happy People
TTITLE12=Nickelback - Because Of You
TTITLE13=Josh Groban - You Raise Me Up
TTITLE14=Third Eye Blind - Crystal Baller
TTITLE15=New Found Glory - Failure's Not Flattering
TTITLE16=data - data
EXTD=
EXTT0=
EXTT1=
EXTT2=
EXTT3=
EXTT4=
EXTT5=
EXTT6=
EXTT7=
EXTT8=
EXTT9=
EXTT10=
EXTT11=
EXTT12=
EXTT13=
EXTT14=
EXTT15=
EXTT16=
PLAYORDER=
